[Header]
FileType HTR
DataType HTRS
FileVersion 1
NumSegments 22
NumFrames 4
DataFrameRate 24
EulerRotationOrder ZYX
CalibrationUnits mm
RotationUnits Degrees
GlobalAxisofGravity Y
BoneLengthAxis Y
ScaleFactor 1.0
[SegmentNames&Hierarchy]
reference	GLOBAL
Hips	reference
Spine	Hips
Spine1	Spine
Neck	Spine1
Head	Neck
LeftShoulder	Spine1
LeftArm	LeftShoulder
LeftForeArm	LeftArm
LeftHand	LeftForeArm
RightShoulder	Spine1
RightArm	RightShoulder
RightForeArm	RightArm
RightHand	RightForeArm
LeftUpLeg	Hips
LeftLeg	LeftUpLeg
LeftFoot	LeftLeg
LeftToeBase	LeftFoot
RightUpLeg	Hips
RightLeg	RightUpLeg
RightFoot	RightLeg
RightToeBase	RightFoot
[BasePosition]
reference	0	0	0	0	0	0	1
Hips	0	0	0	0	0	0	1
Spine	0	0	0	0	-0	90	1
Spine1	0	0	0	0	0	0	1
Neck	0	0	0	-7.352327771	-7.352327771	90	1
Head	0	0	0	0	-0	90	1
LeftShoulder	0	0	0	0	0	0	1
LeftArm	0	0	0	0	0	0	1
LeftForeArm	0	0	0	0	0	0	1
LeftHand	0	0	0	0	0	0	1
RightShoulder	0	0	0	0	-0	180	1
RightArm	0	0	0	0	-0	180	1
RightForeArm	0	0	0	0	-0	180	1
RightHand	0	0	0	0	-0	180	1
LeftUpLeg	0	0	0	0	-0	-90	1
LeftLeg	0	0	0	0	-0	-90	1
LeftFoot	0	0	0	66.57146043	-66.57146043	-90	1
LeftToeBase	0	0	0	0	-90	0	1
RightUpLeg	0	0	0	0	-0	-90	1
RightLeg	0	0	0	0	-0	-90	1
RightFoot	0	0	0	66.57146043	-66.57146043	-90	1
RightToeBase	0	0	0	0	-90	0	1
[reference]
39	0	0	0	0	-0	0	1.0
40	0	0	0	0	-0	0	1.0
41	0	0	0	0	-0	0	1.0
42	0	0	0	0	-0	0	1.0
[Hips]
39	4.950324059	8.473413467	1.309167624	13.9560194	-93.64678192	-12.90783501	1.0
40	5.219305992	8.473545074	1.452050924	10.26805878	-94.46973419	-8.223371506	1.0
41	5.548000813	8.414340973	1.567903042	1.613177896	-96.90223694	2.077376127	1.0
42	5.921829224	8.26205349	1.6668365	1.587268829	-99.83956146	4.424695015	1.0
[Spine]
39	0	0.7457100153	0	-1.607588053	-3.872055054	-91.29122925	1.0
40	0	0.7457100153	0	-1.231862783	-4.490896225	-90.93838501	1.0
41	0	0.7457100153	0	-1.241654992	-4.410571575	-90.88724518	1.0
42	0	0.7457100153	0	-1.795504093	-3.635812998	-91.57371521	1.0
[Spine1]
39	0	2.140589952	0	4.217312336	-1.300929666	0.7857028246	1.0
40	0	2.140589952	0	3.565656424	-1.512676477	0.5909653306	1.0
41	0	2.140589952	0	3.332809925	-1.50767386	1.396796703	1.0
42	0	2.140589952	0	3.544298172	-1.259924889	2.804056644	1.0
[Neck]
39	0	2.32246995	0	-25.8365593	5.895254612	-91.21697998	1.0
40	0	2.32246995	0	-28.88184166	6.857070923	-90.55362701	1.0
41	0	2.32246995	0	-31.39639473	8.344552994	-89.25634766	1.0
42	0	2.32246995	0	-33.06897736	9.226096153	-89.32466888	1.0
[Head]
39	0	1.409579992	0.1818799973	0.7663668394	-1.471277714	-89.05871582	1.0
40	0	1.409579992	0.1818799973	2.44534111	-0.4335919619	-89.86557007	1.0
41	0	1.409579992	0.1818799973	1.84719491	0.9557409883	-90.39633942	1.0
42	0	1.409579992	0.1818799973	-0.1187355816	1.81891048	-89.78405762	1.0
[LeftShoulder]
39	0.3668199778	1.946700096	-0.02662999928	-20.84588623	-15.12734604	-0.5268347859	1.0
40	0.3668199778	1.946700096	-0.02662999928	-22.03394699	-15.53796577	-0.9772181511	1.0
41	0.3668199778	1.946700096	-0.02662999928	-21.91205406	-15.63462543	-1.127133012	1.0
42	0.3668199778	1.946700096	-0.02662999928	-20.08055305	-16.40480423	-2.845930815	1.0
[LeftArm]
39	1.140689969	0	0	56.19290543	-3.898478508	-68.09005737	1.0
40	1.140689969	0	0	57.4552536	-4.194621086	-70.43454742	1.0
41	1.140689969	0	0	57.78181076	-3.029271841	-72.61146545	1.0
42	1.140689969	0	0	54.96813583	-0.7732177377	-71.84781647	1.0
[LeftForeArm]
39	2.749800205	0	0	-138.7328644	-82.42625427	134.6150208	1.0
40	2.749800205	0	0	-142.5023346	-80.20482635	139.4319763	1.0
41	2.749800205	0	0	-131.7582855	-80.44037628	129.9713593	1.0
42	2.749800205	0	0	-90.99363708	-83.14902496	89.60193634	1.0
[LeftHand]
39	2.295179844	0	0	-10.52337742	-18.96857452	4.473806381	1.0
40	2.295179844	0	0	-10.45778275	-19.64756393	3.255536556	1.0
41	2.295179844	0	0	-9.852734566	-20.26856232	1.76093483	1.0
42	2.295179844	0	0	-8.325432777	-21.35027504	0.4082377553	1.0
[RightShoulder]
39	-0.3601199985	1.946700096	-0.02662999928	1.656184793	2.933652163	174.3039551	1.0
40	-0.3601199985	1.946700096	-0.02662999928	1.640500307	3.369772434	174.6877441	1.0
41	-0.3601199985	1.946700096	-0.02662999928	0.633649528	3.392276049	175.1106567	1.0
42	-0.3601199985	1.946700096	-0.02662999928	-0.5949214101	2.899627924	175.4644775	1.0
[RightArm]
39	-1.140689969	0	0	17.95335388	-25.10943031	-127.2013779	1.0
40	-1.140689969	0	0	15.61584091	-26.02555656	-126.0776367	1.0
41	-1.140689969	0	0	18.41423798	-22.9477272	-122.7445374	1.0
42	-1.140689969	0	0	24.98990631	-17.01392174	-116.4726105	1.0
[RightForeArm]
39	-2.749800205	0	0	54.85416412	61.43722916	235.4407349	1.0
40	-2.749800205	0	0	52.75524521	58.9511261	233.2709198	1.0
41	-2.749800205	0	0	44.13647079	59.10066223	220.7427979	1.0
42	-2.749800205	0	0	26.09983826	58.73107147	196.4205322	1.0
[RightHand]
39	-2.295179844	0	0	18.20435333	19.35466385	168.4278412	1.0
40	-2.295179844	0	0	18.86346817	20.24332809	167.4452057	1.0
41	-2.295179844	0	0	17.60341263	21.85829353	165.7954407	1.0
42	-2.295179844	0	0	12.77736282	23.51933289	160.9898529	1.0
[LeftUpLeg]
39	0.9094099998	0	0	-8.225484848	-0.4097006321	89.41876221	1.0
40	0.9094099998	0	0	-3.714430094	-2.449509859	88.04519653	1.0
41	0.9094099998	0	0	-4.395284653	-4.687718868	88.01950836	1.0
42	0.9094099998	0	0	-10.40907478	-4.264066696	88.47174835	1.0
[LeftLeg]
39	0	-4.498080254	0	48.51673126	-11.14746189	75.84701538	1.0
40	0	-4.498080254	0	34.4928093	-5.687343597	87.18801117	1.0
41	0	-4.498080254	0	29.27610397	-7.144922256	86.27179718	1.0
42	0	-4.498080254	0	32.58797455	-6.777947903	83.07679749	1.0
[LeftFoot]
39	0	-3.729400158	0	-43.89110565	105.4917831	6.547952652	1.0
40	0	-3.729400158	0	-108.1286545	98.64231873	-55.7035408	1.0
41	0	-3.729400158	0	-93.8459549	104.7378082	-33.45245361	1.0
42	0	-3.729400158	0	-88.47537994	108.8648834	-20.97720528	1.0
[LeftToeBase]
39	0	-0.5911099911	1.364109993	0	0	0	1.0
40	0	-0.5911099911	1.364109993	0	0	0	1.0
41	0	-0.5911099911	1.364109993	0	0	0	1.0
42	0	-0.5911099911	1.364109993	0	0	0	1.0
[RightUpLeg]
39	-0.9094099998	0	0	-11.32563591	-17.34161186	92.82195282	1.0
40	-0.9094099998	0	0	-14.9312191	-15.9564743	93.49794769	1.0
41	-0.9094099998	0	0	-22.10334206	-11.62314701	95.4021759	1.0
42	-0.9094099998	0	0	-30.5188179	-6.605327606	96.15842438	1.0
[RightLeg]
39	0	-4.498080254	0	17.6503849	-2.998951197	86.10276031	1.0
40	0	-4.498080254	0	18.77416992	-5.404947758	83.70381165	1.0
41	0	-4.498080254	0	25.32588005	-7.72491312	78.35762787	1.0
42	0	-4.498080254	0	35.26715088	-8.384442329	73.10076904	1.0
[RightFoot]
39	0	-3.729400158	0	63.35192871	66.19746399	112.0101471	1.0
40	0	-3.729400158	0	71.67471313	64.73254395	120.2417374	1.0
41	0	-3.729400158	0	79.84703064	60.06568909	130.3178864	1.0
42	0	-3.729400158	0	84.46318817	55.35051727	137.9560242	1.0
[RightToeBase]
39	0	-0.5911099911	1.364109993	0	0	0	1.0
40	0	-0.5911099911	1.364109993	0	0	0	1.0
41	0	-0.5911099911	1.364109993	0	0	0	1.0
42	0	-0.5911099911	1.364109993	0	0	0	1.0
[EndOfFile]
